<?xml version="1.0" ?><svg xmlns="http://www.w3.org/2000/svg" xmlns:xlink="http://www.w3.org/1999/xlink" version="1.1" viewBox="0 0 32 32" style="enable-background:new 0 0 32 32;" xml:space="preserve"><style type="text/css">
	.st0{display:none;}
	.st1{display:inline;}
	.st2{fill:#CDF6F9;}
	.st3{fill:#FFFFFF;}
	.st4{fill:#1A83A8;}
</style><g id="Grid" class="st0"/><g id="Pencil"/><g id="Backpack"/><g id="Research"><path class="st2" d="M6.75,30.02C5.231,30.02,4,28.789,4,27.27V5.77c0-1.519,1.231-2.75,2.75-2.75h18.5   c1.519,0,2.75,1.231,2.75,2.75v21.5c0,1.519-1.231,2.75-2.75,2.75H6.75z"/><path class="st3" d="M28,5.772v3.854H4V5.772c0-1.519,1.231-2.75,2.75-2.75h18.5C26.769,3.022,28,4.253,28,5.772z"/><circle class="st3" cx="22.116" cy="24.136" r="4.29"/><path class="st4" d="M25.25,2.12h-1.1V1.98c0-0.497-0.403-0.9-0.9-0.9s-0.9,0.403-0.9,0.9v0.14H16.9V1.98   c0-0.497-0.403-0.9-0.9-0.9s-0.9,0.403-0.9,0.9v0.14H9.65V1.98c0-0.497-0.403-0.9-0.9-0.9s-0.9,0.403-0.9,0.9v0.14h-1.1   c-2.013,0-3.65,1.637-3.65,3.65v21.5c0,2.013,1.637,3.65,3.65,3.65h10.28c0.497,0,0.9-0.403,0.9-0.9s-0.403-0.9-0.9-0.9H6.75   c-1.02,0-1.85-0.83-1.85-1.85V10.526h22.2v8.524c0,0.497,0.403,0.9,0.9,0.9s0.9-0.403,0.9-0.9V5.77   C28.9,3.757,27.263,2.12,25.25,2.12z M4.9,8.726V5.77c0-1.02,0.83-1.85,1.85-1.85h1.1v0.144c0,0.497,0.403,0.9,0.9,0.9   s0.9-0.403,0.9-0.9V3.92h5.45v0.144c0,0.497,0.403,0.9,0.9,0.9s0.9-0.403,0.9-0.9V3.92h5.45v0.144c0,0.497,0.403,0.9,0.9,0.9   s0.9-0.403,0.9-0.9V3.92h1.1c1.021,0,1.85,0.83,1.85,1.85v2.956H4.9z"/><path class="st4" d="M23.4,15.063c0-0.497-0.403-0.9-0.9-0.9h-13c-0.497,0-0.9,0.403-0.9,0.9s0.403,0.9,0.9,0.9h13   C22.997,15.962,23.4,15.56,23.4,15.063z"/><path class="st4" d="M9.5,19.52c-0.497,0-0.9,0.403-0.9,0.9s0.403,0.9,0.9,0.9h5.77c0.497,0,0.9-0.403,0.9-0.9s-0.403-0.9-0.9-0.9   H9.5z"/><path class="st4" d="M26.361,27.108c0.609-0.866,0.946-1.891,0.946-2.972c0-1.386-0.54-2.689-1.521-3.669   c-0.98-0.98-2.283-1.521-3.67-1.521s-2.689,0.54-3.67,1.52c-0.98,0.98-1.52,2.284-1.52,3.67c0,1.387,0.54,2.69,1.52,3.67   c0.98,0.98,2.283,1.52,3.67,1.52c1.081,0,2.105-0.337,2.971-0.946l2.276,2.276C27.539,30.832,27.77,30.92,28,30.92   s0.461-0.088,0.637-0.264c0.352-0.351,0.352-0.921,0-1.272L26.361,27.108z M19.72,26.533c-0.641-0.64-0.993-1.491-0.993-2.397   c0-0.905,0.353-1.756,0.993-2.397c0.64-0.641,1.491-0.993,2.396-0.993s1.757,0.353,2.396,0.994c0.641,0.64,0.993,1.491,0.993,2.396   c0,0.906-0.353,1.757-0.993,2.397c0,0,0,0,0,0C23.233,27.814,20.999,27.814,19.72,26.533z"/></g><g id="Sunglasses"/><g id="Book"/><g id="Apple"/><g id="Note_Book"/><g id="Open_Book"/><g id="Homework"/><g id="Certificate"/><g id="Bell"/><g id="Projector"/><g id="Note_Book_1_"/><g id="Paper"/><g id="Science_Book"/><g id="Test"/><g id="Whiteboard"/><g id="Schedule"/><g id="School"/><g id="Ebook"/><g id="Globe"/><g id="Planner"/><g id="Presentation"/><g id="Global_Education"/><g id="Failed"/></svg>